Coordinates
version=1
nRows=26
nColumns=24
inDegrees=yes

Units are S.I. units (second, meters, Newtons, ...)
Angles are in degrees.

endheader
time	pelvis_tilt	pelvis_list	pelvis_rotation	pelvis_tx	pelvis_ty	pelvis_tz	hip_flexion_r	hip_adduction_r	hip_rotation_r	knee_angle_r	ankle_angle_r	subtalar_angle_r	mtp_angle_r	hip_flexion_l	hip_adduction_l	hip_rotation_l	knee_angle_l	ankle_angle_l	subtalar_angle_l	mtp_angle_l	lumbar_extension	lumbar_bending	lumbar_rotation
     29.19000000	     -8.21014856	      2.51622452	      6.97029870	     -0.03597713	      0.95094840	      0.01606466	     -9.90302934	      2.34602972	     -8.68554780	    -25.68821997	    -23.08936715	     -2.12410355	      0.00000000	     27.58703213	      8.21742957	      2.74964296	    -25.50997911	     16.79943497	      5.66883042	      0.00000000	     -6.84641378	     -3.03315244	      6.17324145
     29.20000000	     -8.22745209	      2.11369235	      7.18797789	     -0.03572224	      0.94918308	      0.01480445	     -9.37205005	      2.76278792	     -8.63440274	    -29.19764354	    -23.33609902	     -0.93516273	      0.00000000	     26.76938697	      8.15109710	      4.38452667	    -20.46484141	     16.82049551	      4.56439605	      0.00000000	     -6.74170086	     -2.62150373	      6.09475347
     29.21000000	     -8.14473058	      1.90821971	      7.72081141	     -0.03490450	      0.94664787	      0.01361778	     -9.08295182	      3.09581536	     -8.94065215	    -32.59534405	    -22.93048445	      0.23233619	      0.00000000	     25.79778056	      8.24498475	      6.11798442	    -15.98006057	     16.70196348	      2.53310783	      0.00000000	     -6.71407896	     -2.50372912	      5.58548931
     29.22000000	     -7.96566862	      1.76055788	      8.18497973	     -0.03432438	      0.94312890	      0.01231719	     -8.76312887	      3.34176372	     -9.23409788	    -36.24614500	    -22.28394275	      0.93108883	      0.00000000	     24.87949544	      8.33696075	      7.57254776	    -12.39794582	     16.30779026	      1.78446350	      0.00000000	     -6.82780654	     -2.42402634	      5.07875919
     29.23000000	     -7.51259185	      1.70029326	      8.53821667	     -0.03371907	      0.93899436	      0.01077866	     -8.68302115	      3.41736637	     -9.67950753	    -39.96351637	    -21.61387412	      0.96070451	      0.00000000	     23.89956913	      8.46595779	      8.75110588	     -9.96945357	     16.09868125	      0.14287547	      0.00000000	     -7.25535212	     -2.36027832	      4.61457710
     29.24000000	     -6.87712089	      1.77612433	      8.89949698	     -0.03244464	      0.93420494	      0.00931461	     -8.84239244	      3.35828787	    -10.22640600	    -43.62945227	    -21.23818310	      0.27554694	      0.00000000	     23.01338267	      8.72383516	      9.45139816	     -8.99026452	     15.97210743	     -0.80119389	      0.00000000	     -7.79213069	     -2.44511864	      4.05323056
     29.25000000	     -6.20584143	      1.85912901	      9.20303993	     -0.03144548	      0.92853039	      0.00773989	     -8.88767928	      3.16896454	    -10.82197999	    -47.49651190	    -20.92235070	     -0.78439883	      0.00000000	     22.49036396	      9.00868890	      9.74222048	     -9.53579246	     16.40138421	     -0.31830236	      0.00000000	     -8.37204389	     -2.50067394	      3.49029835
     29.26000000	     -5.42259948	      2.15081305	      9.54098530	     -0.03044438	      0.92242051	      0.00578926	     -9.06157417	      2.57663462	    -11.76347887	    -51.40090167	    -20.51457387	     -2.00545068	      0.00000000	     22.05881721	      9.51980527	     10.00927441	    -11.34056896	     15.18740657	     -0.01402636	      0.00000000	     -9.10153248	     -2.71699698	      2.77308448
     29.27000000	     -4.54222285	      2.60326625	      9.80784938	     -0.02950562	      0.91570999	      0.00364873	     -9.29079939	      1.64540533	    -12.77852389	    -55.41743195	    -19.83436835	     -3.32955404	      0.00000000	     21.77877421	     10.20479372	      9.91035509	    -14.45575530	     11.64967734	     -1.34946939	      0.00000000	     -9.97079347	     -3.05862638	      2.05010812
     29.28000000	     -3.46864714	      2.95537540	     10.03960129	     -0.02831316	      0.90849466	      0.00162214	     -9.73322163	      0.75179930	    -13.88096388	    -59.29123857	    -19.03705111	     -5.14793552	      0.00000000	     21.40734713	     10.70203435	      9.05620416	    -18.29200088	      8.14717066	     -2.68252453	      0.00000000	    -10.98383730	     -3.24441992	      1.29055222
     29.29000000	     -2.37562426	      3.41061530	     10.26144910	     -0.02740035	      0.90059518	     -0.00050139	    -10.11141187	     -0.38401966	    -15.03593894	    -63.32331564	    -17.78816856	     -7.03997282	      0.00000000	     20.99001703	     11.32804408	      8.28214493	    -22.13825646	      6.28735568	     -4.50073722	      0.00000000	    -12.07814070	     -3.51292274	      0.40077415
     29.30000000	     -1.54381968	      3.88297893	     10.66163359	     -0.02788696	      0.89195658	     -0.00291973	     -9.98824838	     -1.70188593	    -16.34579768	    -67.62154946	    -16.11955473	     -8.99568648	      0.00000000	     21.39441957	     12.18221002	      7.34963212	    -27.36720444	     10.06957376	     -4.73320800	      0.00000000	    -13.07926436	     -3.78754569	     -0.74976344
     29.31000000	     -1.01814162	      4.22411388	     11.18063304	     -0.02964996	      0.88317078	     -0.00512029	     -9.30652764	     -2.92812789	    -17.57051971	    -71.93450964	    -14.18292479	    -10.78091260	      0.00000000	     22.56059364	     12.78031662	      5.80821741	    -33.43376819	     14.72684491	     -3.25166918	      0.00000000	    -13.90513427	     -3.99690014	     -2.12824455
     29.32000000	     -0.62911857	      4.36715791	     11.76710169	     -0.03227345	      0.87497351	     -0.00698010	     -8.22280431	     -3.91658135	    -18.56395599	    -76.08641940	    -12.15002835	    -12.25687939	      0.00000000	     23.78835087	     13.13747577	      5.00733507	    -39.31004435	     19.05251916	     -1.73804018	      0.00000000	    -14.71221104	     -4.01862168	     -3.68340396
     29.33000000	      0.11197619	      4.56019082	     12.16911633	     -0.03489432	      0.86861311	     -0.00800293	     -7.39432481	     -4.76371298	    -19.21538226	    -79.78394731	    -10.33432300	    -13.31443865	      0.00000000	     23.91201011	     13.32892244	      4.90872454	    -44.00631221	     22.82343379	      0.07571397	      0.00000000	    -16.12859472	     -3.93558683	     -5.16099751
     29.34000000	      1.08082050	      4.80542070	     12.33650394	     -0.03762050	      0.86410345	     -0.00774536	     -6.64588460	     -5.40920633	    -19.45443205	    -82.93559904	     -8.42160491	    -14.32617210	      0.00000000	     23.01758274	     13.31306346	      4.99169866	    -47.20152315	     25.65788709	      1.06949864	      0.00000000	    -17.91960899	     -3.89309043	     -6.33252764
     29.35000000	      1.94120283	      5.10238471	     12.24824319	     -0.03951383	      0.86093807	     -0.00680644	     -5.73930014	     -6.03566765	    -19.37350820	    -85.59025070	     -6.45264036	    -15.06529643	      0.00000000	     21.43441446	     13.19076107	      5.02879253	    -49.05604255	     27.95179270	      1.69547019	      0.00000000	    -19.37499351	     -4.11656521	     -7.11302925
     29.36000000	      2.13272537	      5.06906660	     11.78976264	     -0.04084969	      0.85789841	     -0.00517593	     -3.81121625	     -6.35545008	    -18.74124223	    -87.98525717	     -4.59201030	    -15.26783648	      0.00000000	     20.10937605	     12.65865458	      4.86441731	    -50.03096863	     29.98324669	      2.14744677	      0.00000000	    -19.79510063	     -4.29923928	     -7.65558067
     29.37000000	      1.84060237	      4.74863061	     11.06074277	     -0.04219200	      0.85565720	     -0.00317649	     -1.11301069	     -6.37679514	    -17.72008920	    -89.85339399	     -2.89458733	    -15.56327982	      0.00000000	     19.02758809	     11.81580289	      4.52049936	    -50.29111772	     31.59712140	      2.36796823	      0.00000000	    -19.48527099	     -4.31988444	     -8.04681320
     29.38000000	      1.37330948	      4.36460250	     10.24275249	     -0.04298752	      0.85531084	     -0.00121843	      1.74975414	     -6.25108518	    -16.61230730	    -90.94288760	     -1.41589533	    -15.20711911	      0.00000000	     17.75658775	     10.81758097	      3.96164404	    -49.89073963	     33.11637733	      3.10247373	      0.00000000	    -18.84429053	     -4.25637206	     -8.46310246
     29.39000000	      0.77403436	      3.96653673	      9.41912293	     -0.04439954	      0.85645785	      0.00059245	      4.83698017	     -6.06375511	    -15.47164373	    -91.57447894	     -0.27579781	    -14.03532769	      0.00000000	     16.38345107	      9.78373061	      3.24957596	    -48.87079560	     34.01009067	      3.76901821	      0.00000000	    -18.13148165	     -4.07349943	     -8.92945911
     29.40000000	      0.07445579	      3.46203269	      8.54513165	     -0.04656725	      0.85897587	      0.00219841	      8.10201387	     -5.69713019	    -14.30548567	    -91.55671311	      0.99431142	    -12.90408129	      0.00000000	     14.97737755	      8.65561887	      2.44673663	    -47.37110140	     34.46955611	      4.46061909	      0.00000000	    -17.38131976	     -3.67528211	     -9.38247369
     29.41000000	     -0.59494453	      2.87834883	      7.53277964	     -0.04843506	      0.86271867	      0.00390589	     11.15842401	     -5.11193722	    -13.09551537	    -90.84457914	      2.30817799	    -11.80297807	      0.00000000	     13.35873239	      7.42538293	      1.46542551	    -45.46734244	     34.51507269	      5.24207857	      0.00000000	    -16.66067217	     -3.11527518	     -9.66602052
     29.42000000	     -1.02546899	      2.16873891	      6.44969488	     -0.04964076	      0.86822385	      0.00563499	     13.67834858	     -4.21765514	    -12.02627583	    -89.24696170	      3.54697006	    -10.66285276	      0.00000000	     11.19768543	      6.05950167	      0.48408950	    -43.03860815	     33.77835501	      5.96764484	      0.00000000	    -16.08768325	     -2.34196538	     -9.86880755
     29.43000000	     -1.51738712	      1.39047874	      5.35325988	     -0.05058437	      0.87458845	      0.00775799	     16.04155289	     -3.07817741	    -10.95967997	    -86.90236198	      4.79635721	     -9.62141729	      0.00000000	      8.93620859	      4.65131647	     -0.58640294	    -40.29151761	     32.30358494	      6.63089849	      0.00000000	    -15.44200853	     -1.52204383	    -10.08560119
     29.44000000	     -1.84543133	      0.62982206	      4.21054852	     -0.05053042	      0.88197110	      0.01005952	     17.83621553	     -1.79928647	     -9.89218680	    -83.83556847	      5.71329491	     -8.47166106	      0.00000000	      6.28040175	      3.31896717	     -1.72254952	    -37.16088836	     29.81471185	      7.05768073	      0.00000000	    -14.90246561	     -0.67263797	    -10.21919472
